# xmcd CD database file
#
# Track frame offsets:
#	150
#	12482
#	29697
#	45922
#	62602
#	80612
#	94087
#	110010
#	123930
#	136727
#	155705
#	177280
#
# Disc length: 2509 seconds
#
# Revision: 0
# Processed by: cddbd v1.5.1PL0 Copyright (c) Steve Scherf et al.
# Submitted via: CDex 1.51
#
DISCID=9a09cb0c
DTITLE=サウンド・セレクション - ギター名曲集
DYEAR=1993
DGENRE=Jazz
TTITLE0=第3の男
TTITLE1=デサフォナード
TTITLE2=バレリーナ・ガール
TTITLE3=ディノーラ・ディノーラ
TTITLE4=落葉のコンチェルト
TTITLE5=ブルー・スター
TTITLE6=コパカバーナ
TTITLE7=グレート・プリテンダー
TTITLE8=モナリザ
TTITLE9=やさしく歌って
TTITLE10=オン・ザ・ビーチ
TTITLE11=ふたつのギター
EXTD=YEAR: 1993
EXTT0=
EXTT1=
EXTT2=
EXTT3=
EXTT4=
EXTT5=
EXTT6=
EXTT7=
EXTT8=
EXTT9=
EXTT10=
EXTT11=
PLAYORDER=
